The Inheritance (2011)(DivX)(DD5.1)(nl subs ext) TBS

Verenigde Staten
Thriller
90 minuten

geregisseerd door Robert O'Hara
met Golden Brooks, D.B. Woodside en Darrin Dewitt Henson

Vijf ambitieuze neven en nichten begeven zich naar een familiereünie tijdens de winter. Hun doel is hun erfenis, een groot geldbedrag dat vele generaties terug gaat, te innen. Bij aankomst worden ze met open armen ontvangen door Oom Melvin, maar hij vertelt hen de familietradities te respecteren. Tijdens het weekend verdwijnen de neven en nichten echter één voor één, en de overgeblevenen ontdekken een vreselijke waarheid over hun familie. Ze zullen een offer moeten maken om hun geliefde erfenis te ontvangen...

Storyline:

Five ambitious cousins ??proceed to a family reunion during the winter. Their goal is their legacy, a large sum of money that goes back many generations to recover. On arrival they are welcomed with open arms by Uncle Melvin, but he tells them to respect the family traditions. During the weekend the cousins ??disappear one by one, however, and the survivors discover a terrible truth about their family. They will have to make a sacrifice for their beloved inheritance received ...





Source.............: The.Inheritance.COMPLETE.REPACK.NTSC.DVDR-M5PC
Audio..............: English DD 5.1 
Subtitles..........: Eng / Nl Vertaald door Ehr Asjee, Subzero en WinchesterGirl Mooie Team!!!
Controle...........: WinchesterGirl
Bewerking+Resync...: WinchesterGirl, Klasse werk Girl thnx!!! 
AVI.......1 CD.....: Zelda
Cover..............: Yes
Category...........: Video 
Format.............: DivX 
Source.............: Retail 
Subtitle...........: extern  
Language...........: English audio

Format                           : AVI
Format/Info                      : Audio Video Interleave
File size                        : 996 MiB
Duration                         : 1h 24mn
Overall bit rate                 : 1 646 Kbps
Writing application              : FairUse Wizard - http://fairusewizard.com
Writing library                  : The best and REALLY easy backup tool

Video
ID                               : 0
Format                           : MPEG-4 Visual
Format profile                   : Advanced Simple@L5
Format settings, BVOP            : Yes
Format settings, QPel            : No
Format settings, GMC             : No warppoints
Format settings, Matrix          : Default (H.263)
Muxing mode                      : Packed bitstream
Codec ID                         : XVID
Codec ID/Hint                    : XviD
Duration                         : 1h 24mn
Bit rate                         : 1 509 Kbps
Width                            : 688 pixels
Height                           : 384 pixels
Display aspect ratio             : 16:9
Frame rate                       : 23.976 fps
Color space                      : YUV
Chroma subsampling               : 4:2:0
Bit depth                        : 8 bits
Scan type                        : Progressive
Bits/(Pixel*Frame)               : 0.238
Stream size                      : 913 MiB (92%)
Writing library                  : XviD 1.2.0.dev47 (UTC 2006-11-01)

Audio
ID                               : 1
Format                           : MPEG Audio
Format version                   : Version 1
Format profile                   : Layer 3
Mode                             : Joint stereo
Codec ID                         : 55
Codec ID/Hint                    : MP3
Duration                         : 1h 24mn
Bit rate mode                    : Constant
Bit rate                         : 128 Kbps
Channel(s)                       : 2 channels
Sampling rate                    : 48.0 KHz
Stream size                      : 77.4 MiB (8%)
Alignment                        : Aligned on interleaves
Interleave, duration             : 42 ms (1.00 video frame)
Interleave, preload duration     : 504 ms
Writing library                  : LAME3.97 
Encoding settings                : -m j -V 4 -q 2 -lowpass 17 -b 128
  
 
   
http://www.moviemeter.nl/film/73400  
http://www.imdb.com/title/tt1342115